<svg width="15" height="15" viewBox="0 0 15 15" fill="none" xmlns="http://www.w3.org/2000/svg">
<path d="M9.375 6.25L12.2206 4.8275C12.3159 4.7799 12.4217 4.75742 12.5281 4.76222C12.6345 4.76701 12.7379 4.7989 12.8285 4.85488C12.9191 4.91085 12.9939 4.98905 13.0458 5.08204C13.0977 5.17504 13.1249 5.27976 13.125 5.38625V9.61375C13.1249 9.72024 13.0977 9.82496 13.0458 9.91796C12.9939 10.011 12.9191 10.0891 12.8285 10.1451C12.7379 10.2011 12.6345 10.233 12.5281 10.2378C12.4217 10.2426 12.3159 10.2201 12.2206 10.1725L9.375 8.75V6.25ZM1.875 5C1.875 4.66848 2.0067 4.35054 2.24112 4.11612C2.47554 3.8817 2.79348 3.75 3.125 3.75H8.125C8.45652 3.75 8.77446 3.8817 9.00888 4.11612C9.2433 4.35054 9.375 4.66848 9.375 5V10C9.375 10.3315 9.2433 10.6495 9.00888 10.8839C8.77446 11.1183 8.45652 11.25 8.125 11.25H3.125C2.79348 11.25 2.47554 11.1183 2.24112 10.8839C2.0067 10.6495 1.875 10.3315 1.875 10V5Z" stroke="white" stroke-width="1.25" stroke-linecap="round" stroke-linejoin="round"/>
</svg>
