<svg width="270" height="82" viewBox="0 0 270 82" fill="none" xmlns="http://www.w3.org/2000/svg">
<path d="M32.2976 15C31.6316 15 30.9656 14.86 30.4465 14.5799L23.1291 10.6254C22.7944 10.4449 22.0137 9.91699 22.0137 8.92031C22.0137 7.92363 22.7944 7.39688 23.1301 7.21406L30.5107 3.22559C31.5278 2.6748 33.0624 2.6748 34.0799 3.22559L41.4651 7.21406C41.8008 7.39512 42.5815 7.92305 42.5815 8.92031C42.5815 9.91758 41.8008 10.4438 41.4651 10.626L34.1477 14.5799C33.6295 14.86 32.9636 15 32.2976 15Z" fill="#353335"/>
<path d="M41.4621 13.2896L40.716 12.8906L38.7992 13.9301L34.1516 16.4496C33.6325 16.7309 32.965 16.8709 32.3005 16.8709C31.636 16.8709 30.9691 16.7309 30.4504 16.4496L25.7994 13.9301L23.8821 12.8906L23.1296 13.2914C22.7944 13.4725 22.0137 14.0039 22.0137 15C22.0137 15.9961 22.7944 16.5281 23.1291 16.7092L30.4465 20.6719C30.9626 20.9531 31.6296 21.0938 32.2976 21.0938C32.9655 21.0938 33.6295 20.9531 34.1487 20.6725L41.4596 16.7109C41.7963 16.5299 42.5815 16.0014 42.5815 15C42.5815 13.9986 41.8018 13.4725 41.4621 13.2896Z" fill="#2563EB"/>
<path d="M41.4621 19.3828L40.716 18.9844L38.7992 20.0232L34.1516 22.5398C33.6325 22.8199 32.965 22.9605 32.3005 22.9605C31.636 22.9605 30.9691 22.8205 30.4504 22.5398L25.7994 20.0203L23.8821 18.9844L23.1296 19.3852C22.7944 19.5662 22.0137 20.0977 22.0137 21.0938C22.0137 22.0898 22.7944 22.6213 23.1291 22.8018L30.4465 26.7621C30.9626 27.0422 31.6321 27.1875 32.2976 27.1875C32.9631 27.1875 33.6266 27.0422 34.1457 26.7615L41.4591 22.8023C41.7963 22.6219 42.5815 22.0934 42.5815 21.0938C42.5815 20.0941 41.8018 19.5662 41.4621 19.3828Z" fill="#353335"/>
<path d="M56.0073 26.3333C55.622 26.9981 54.6622 26.9981 54.2769 26.3333L52.2325 22.8059C51.8461 22.1392 52.3271 21.3044 53.0977 21.3044L57.1865 21.3044C57.957 21.3044 58.4381 22.1392 58.0517 22.8059L56.0073 26.3333Z" fill="#2563EB"/>
<path d="M124.529 26.3333C124.144 26.9981 123.184 26.9981 122.798 26.3333L120.754 22.8059C120.368 22.1392 120.849 21.3044 121.619 21.3044L125.708 21.3044C126.479 21.3044 126.96 22.1392 126.573 22.8059L124.529 26.3333Z" fill="#2563EB"/>
<path d="M167.591 26.3333C167.205 26.9981 166.245 26.9981 165.86 26.3333L163.816 22.8059C163.429 22.1392 163.91 21.3044 164.681 21.3044L168.77 21.3044C169.54 21.3044 170.021 22.1392 169.635 22.8059L167.591 26.3333Z" fill="#2563EB"/>
<path d="M11.4874 27.5127C7.5768 27.5127 4.67877 26.504 2.79329 24.4867C0.931098 22.4461 0 19.2809 0 14.991C0 10.8403 0.977653 7.74463 2.93296 5.70405C4.88826 3.64028 7.79794 2.6084 11.662 2.6084C12.2207 2.6084 12.791 2.64318 13.3729 2.71274C13.9781 2.75912 14.5717 2.84028 15.1536 2.95622C15.7355 3.07217 16.2709 3.2113 16.7598 3.37361C17.2719 3.53593 17.7025 3.72144 18.0517 3.93014C18.331 4.09246 18.5521 4.26637 18.7151 4.45188C18.878 4.63738 18.9595 4.83449 18.9595 5.04318C18.9595 5.27506 18.8896 5.57651 18.75 5.94753C18.6336 6.29535 18.4706 6.64318 18.2611 6.99101C18.0749 7.33883 17.8654 7.62869 17.6327 7.86057C17.3999 8.09245 17.1787 8.2084 16.9693 8.2084C16.6899 8.2084 16.3873 8.16202 16.0614 8.06927C15.7355 7.95332 15.3631 7.83738 14.9441 7.72144C14.5251 7.58231 14.0363 7.46637 13.4776 7.37361C12.9423 7.25767 12.3021 7.1997 11.5572 7.1997C9.50883 7.1997 7.98416 7.84898 6.98323 9.14753C6.00558 10.4461 5.51675 12.4055 5.51675 15.0258C5.51675 16.9968 5.73789 18.562 6.18016 19.7214C6.62243 20.8809 7.28584 21.7156 8.17038 22.2258C9.05492 22.7127 10.1606 22.9562 11.4874 22.9562C12.1159 22.9562 12.7328 22.9098 13.338 22.8171C13.9432 22.7243 14.5018 22.5968 15.0139 22.4345C15.5493 22.2722 15.9683 22.0983 16.2709 21.9127L14.56 24.4867V17.4606H10.9637C10.2653 17.4606 9.91619 16.8809 9.91619 15.7214V14.7127C9.91619 13.5533 10.2653 12.9736 10.9637 12.9736H18.4357C19.297 12.9736 19.7276 13.4374 19.7276 14.3649V24.7301C19.7276 25.0316 19.6345 25.3098 19.4483 25.5649C19.2854 25.7968 19.0177 26.0055 18.6452 26.191C18.1797 26.4461 17.5512 26.678 16.7598 26.8867C15.9683 27.0722 15.1071 27.2229 14.176 27.3388C13.2681 27.4548 12.372 27.5127 11.4874 27.5127Z" fill="#353335"/>
<path d="M46.6567 27.3042C45.9351 27.3042 45.3997 27.2346 45.0505 27.0955C44.7014 26.9563 44.5268 26.7708 44.5268 26.5389C44.5268 26.4462 44.5384 26.3534 44.5617 26.2607C44.6083 26.1447 44.6432 26.0288 44.6665 25.9128L52.348 3.54763C52.4411 3.29256 52.6506 3.10705 52.9765 2.99111C53.3024 2.87517 53.7563 2.81719 54.3382 2.81719H56.1539C56.7591 2.81719 57.213 2.87517 57.5157 2.99111C57.8415 3.10705 58.051 3.29256 58.1441 3.54763L65.8257 25.9128C65.8722 26.0288 65.8955 26.1447 65.8955 26.2607C65.9188 26.3534 65.9305 26.4462 65.9305 26.5389C65.9305 26.7708 65.7908 26.9563 65.5114 27.0955C65.2321 27.2346 64.7899 27.3042 64.1846 27.3042H62.6483C62.1362 27.3042 61.7056 27.2578 61.3564 27.165C61.0073 27.0491 60.7861 26.852 60.693 26.5737L55.8048 11.5476C55.6884 11.1766 55.5836 10.8056 55.4905 10.4346C55.4206 10.0636 55.3508 9.69256 55.281 9.32154H55.1413C55.0715 9.69256 54.99 10.0636 54.8969 10.4346C54.827 10.8056 54.7339 11.1766 54.6175 11.5476L49.6595 26.5737C49.5664 26.8288 49.3801 27.0143 49.1008 27.1302C48.8215 27.2462 48.4723 27.3042 48.0533 27.3042H46.6567Z" fill="#353335"/>
<path d="M70.3048 27.3042C69.5832 27.3042 69.0478 27.2114 68.6986 27.0259C68.3728 26.8172 68.2098 26.5273 68.2098 26.1563V4.27806C68.2098 3.35053 68.6404 2.88676 69.5017 2.88676H76.4151C79.4877 2.88676 81.7224 3.48966 83.119 4.69546C84.5389 5.90125 85.2489 7.6056 85.2489 9.8085C85.2489 10.8056 85.0976 11.6868 84.795 12.452C84.5157 13.2172 84.085 13.8665 83.5031 14.3998C82.9444 14.9331 82.2345 15.3505 81.3732 15.652V15.7911C81.7689 15.9302 82.1646 16.2317 82.5603 16.6955C82.9793 17.1592 83.3052 17.6926 83.538 18.2955L86.3662 25.3215C86.4826 25.5766 86.5641 25.8085 86.6106 26.0172C86.6805 26.2259 86.7154 26.3998 86.7154 26.5389C86.7154 26.8404 86.5641 27.0491 86.2615 27.165C85.9589 27.2578 85.4351 27.3042 84.6902 27.3042H83.2587C82.7466 27.3042 82.3043 27.2462 81.9319 27.1302C81.5827 26.9911 81.315 26.7013 81.1288 26.2607L78.5101 19.9302C78.3239 19.4433 78.0911 19.0491 77.8118 18.7476C77.5557 18.4462 77.2065 18.2259 76.7643 18.0868C76.322 17.9244 75.7168 17.8433 74.9486 17.8433H73.6218V26.1563C73.6218 26.5273 73.4589 26.8172 73.133 27.0259C72.8071 27.2114 72.2717 27.3042 71.5268 27.3042H70.3048ZM73.6218 13.6346H76.6944C77.7652 13.6346 78.5334 13.3911 78.9989 12.9042C79.4877 12.4172 79.7321 11.6288 79.7321 10.5389C79.7321 9.44908 79.4877 8.66067 78.9989 8.17372C78.5334 7.68676 77.7652 7.44328 76.6944 7.44328H73.6218V13.6346Z" fill="#353335"/>
<path d="M96.155 27.5128C94.9911 27.5128 93.9437 27.4201 93.0126 27.2346C92.1047 27.0723 91.3249 26.852 90.6732 26.5737C90.0214 26.2955 89.486 26.0288 89.067 25.7737C88.7411 25.565 88.4735 25.3679 88.264 25.1824C88.0545 24.9737 87.9497 24.7302 87.9497 24.452C87.9497 24.1737 87.9846 23.8607 88.0545 23.5128C88.1476 23.1418 88.264 22.7824 88.4036 22.4346C88.5666 22.0868 88.7295 21.7969 88.8925 21.565C89.0787 21.3331 89.2649 21.2172 89.4511 21.2172C89.6606 21.2172 90.068 21.3679 90.6732 21.6694C91.3017 21.9476 92.0349 22.2375 92.8729 22.5389C93.7342 22.8172 94.6303 22.9563 95.5614 22.9563C96.2365 22.9563 96.7835 22.8752 97.2025 22.7128C97.6448 22.5505 97.9706 22.2955 98.1802 21.9476C98.4129 21.5998 98.5293 21.1592 98.5293 20.6259C98.5293 20.0694 98.3664 19.6056 98.0405 19.2346C97.7379 18.8636 97.3305 18.5389 96.8184 18.2607C96.3063 17.9592 95.7244 17.6926 95.0726 17.4607C94.4441 17.2056 93.804 16.9273 93.1522 16.6259C92.547 16.3476 91.9651 16.023 91.4064 15.652C90.8477 15.281 90.3356 14.8288 89.8701 14.2955C89.4278 13.7621 89.0787 13.1128 88.8226 12.3476C88.5666 11.5824 88.4385 10.6781 88.4385 9.63458C88.4385 8.38241 88.6713 7.31575 89.1369 6.43459C89.6257 5.53024 90.2658 4.7998 91.0573 4.24328C91.8487 3.68676 92.7332 3.28096 93.7109 3.02589C94.6885 2.74763 95.6895 2.6085 96.7137 2.6085C97.4585 2.6085 98.1801 2.66647 98.8785 2.78241C99.6001 2.89835 100.252 3.06067 100.834 3.26937C101.416 3.45488 101.881 3.67517 102.23 3.93024C102.486 4.09256 102.696 4.26647 102.859 4.45198C103.022 4.63748 103.103 4.82299 103.103 5.0085C103.103 5.24038 103.057 5.54183 102.964 5.91285C102.894 6.26067 102.789 6.6085 102.649 6.95633C102.533 7.30415 102.382 7.59401 102.195 7.82589C102.009 8.05777 101.811 8.17372 101.602 8.17372C101.323 8.17372 100.95 8.09256 100.485 7.93024C100.042 7.74473 99.507 7.57082 98.8785 7.4085C98.2732 7.22299 97.5866 7.13024 96.8184 7.13024C96.1667 7.13024 95.6196 7.2114 95.1774 7.37372C94.7351 7.53604 94.3976 7.77951 94.1648 8.10415C93.9553 8.4056 93.8505 8.7998 93.8505 9.28676C93.8505 9.86647 94.0251 10.3534 94.3743 10.7476C94.7234 11.1186 95.189 11.4433 95.7709 11.7215C96.3761 11.9766 97.0163 12.2549 97.6913 12.5563C98.4129 12.8578 99.1462 13.194 99.891 13.565C100.636 13.936 101.323 14.3998 101.951 14.9563C102.58 15.4897 103.08 16.1737 103.452 17.0085C103.848 17.8201 104.046 18.8404 104.046 20.0694C104.046 21.4375 103.813 22.5969 103.348 23.5476C102.905 24.4984 102.3 25.2636 101.532 25.8433C100.764 26.423 99.9143 26.852 98.9832 27.1302C98.0521 27.3853 97.1094 27.5128 96.155 27.5128Z" fill="#353335"/>
<path d="M115.228 27.3042C114.506 27.3042 113.971 27.2346 113.621 27.0955C113.272 26.9563 113.098 26.7708 113.098 26.5389C113.098 26.4462 113.109 26.3534 113.133 26.2607C113.179 26.1447 113.214 26.0288 113.237 25.9128L120.919 3.54763C121.012 3.29256 121.222 3.10705 121.547 2.99111C121.873 2.87517 122.327 2.81719 122.909 2.81719H124.725C125.33 2.81719 125.784 2.87517 126.087 2.99111C126.412 3.10705 126.622 3.29256 126.715 3.54763L134.397 25.9128C134.443 26.0288 134.466 26.1447 134.466 26.2607C134.49 26.3534 134.501 26.4462 134.501 26.5389C134.501 26.7708 134.362 26.9563 134.082 27.0955C133.803 27.2346 133.361 27.3042 132.756 27.3042H131.219C130.707 27.3042 130.276 27.2578 129.927 27.165C129.578 27.0491 129.357 26.852 129.264 26.5737L124.376 11.5476C124.259 11.1766 124.154 10.8056 124.061 10.4346C123.992 10.0636 123.922 9.69256 123.852 9.32154H123.712C123.642 9.69256 123.561 10.0636 123.468 10.4346C123.398 10.8056 123.305 11.1766 123.188 11.5476L118.23 26.5737C118.137 26.8288 117.951 27.0143 117.672 27.1302C117.392 27.2462 117.043 27.3042 116.624 27.3042H115.228Z" fill="#353335"/>
<path d="M147.57 27.5128C143.659 27.5128 140.761 26.5042 138.876 24.4868C137.013 22.4462 136.082 19.281 136.082 14.9911C136.082 10.8404 137.06 7.74473 139.015 5.70415C140.971 3.64038 143.88 2.6085 147.744 2.6085C148.489 2.6085 149.257 2.66647 150.049 2.78241C150.864 2.87517 151.632 3.02589 152.353 3.23458C153.075 3.42009 153.668 3.65198 154.134 3.93024C154.413 4.09256 154.634 4.26647 154.797 4.45198C154.96 4.63748 155.042 4.83459 155.042 5.04328C155.042 5.27517 154.984 5.57661 154.867 5.94763C154.774 6.29546 154.646 6.64328 154.483 6.99111C154.32 7.33893 154.134 7.62879 153.925 7.86067C153.715 8.09256 153.506 8.2085 153.296 8.2085C153.017 8.2085 152.621 8.12734 152.109 7.96502C151.597 7.77951 150.968 7.6056 150.223 7.44328C149.502 7.28096 148.641 7.1998 147.64 7.1998C146.266 7.1998 145.126 7.48966 144.218 8.06937C143.333 8.64908 142.67 9.51864 142.228 10.6781C141.809 11.8375 141.599 13.2868 141.599 15.0259C141.599 16.765 141.82 18.2259 142.263 19.4085C142.705 20.5679 143.368 21.4491 144.253 22.052C145.137 22.6549 146.243 22.9563 147.57 22.9563C148.408 22.9563 149.164 22.8868 149.839 22.7476C150.514 22.6085 151.108 22.4462 151.62 22.2607C152.132 22.0752 152.563 21.9129 152.912 21.7737C153.261 21.6346 153.517 21.565 153.68 21.565C153.959 21.565 154.204 21.6926 154.413 21.9476C154.623 22.2027 154.797 22.5042 154.937 22.852C155.077 23.1998 155.182 23.5476 155.251 23.8955C155.321 24.2201 155.356 24.452 155.356 24.5911C155.356 24.9853 155.263 25.2752 155.077 25.4607C154.891 25.6462 154.53 25.8897 153.994 26.1911C153.436 26.4926 152.772 26.7476 152.004 26.9563C151.259 27.1418 150.491 27.281 149.7 27.3737C148.932 27.4665 148.222 27.5128 147.57 27.5128Z" fill="#353335"/>
<path d="M158.259 27.3042C157.537 27.3042 157.002 27.2346 156.653 27.0955C156.304 26.9563 156.129 26.7708 156.129 26.5389C156.129 26.4462 156.141 26.3534 156.164 26.2607C156.211 26.1447 156.246 26.0288 156.269 25.9128L163.95 3.54763C164.043 3.29256 164.253 3.10705 164.579 2.99111C164.905 2.87517 165.359 2.81719 165.941 2.81719H167.756C168.361 2.81719 168.815 2.87517 169.118 2.99111C169.444 3.10705 169.653 3.29256 169.746 3.54763L177.428 25.9128C177.475 26.0288 177.498 26.1447 177.498 26.2607C177.521 26.3534 177.533 26.4462 177.533 26.5389C177.533 26.7708 177.393 26.9563 177.114 27.0955C176.834 27.2346 176.392 27.3042 175.787 27.3042H174.251C173.739 27.3042 173.308 27.2578 172.959 27.165C172.61 27.0491 172.388 26.852 172.295 26.5737L167.407 11.5476C167.291 11.1766 167.186 10.8056 167.093 10.4346C167.023 10.0636 166.953 9.69256 166.883 9.32154H166.744C166.674 9.69256 166.592 10.0636 166.499 10.4346C166.429 10.8056 166.336 11.1766 166.22 11.5476L161.262 26.5737C161.169 26.8288 160.982 27.0143 160.703 27.1302C160.424 27.2462 160.075 27.3042 159.656 27.3042H158.259Z" fill="#353335"/>
<path d="M181.104 27.2346C180.243 27.2346 179.812 26.7708 179.812 25.8433V4.27806C179.812 3.35053 180.243 2.88676 181.104 2.88676H189.065C192.673 2.88676 195.431 3.93024 197.34 6.01719C199.272 8.10415 200.238 11.1186 200.238 15.0607C200.238 18.9795 199.272 21.994 197.34 24.1042C195.431 26.1911 192.673 27.2346 189.065 27.2346H181.104ZM185.224 22.6781H189.065C190.927 22.6781 192.335 22.0404 193.29 20.765C194.244 19.4665 194.721 17.565 194.721 15.0607C194.721 12.5563 194.244 10.6665 193.29 9.39111C192.335 8.09256 190.927 7.44328 189.065 7.44328H185.224V22.6781Z" fill="#353335"/>
<path d="M225.245 27.3042C224.524 27.3042 223.988 27.2114 223.639 27.0259C223.313 26.8172 223.15 26.5273 223.15 26.1563V3.96502C223.15 3.59401 223.313 3.31574 223.639 3.13024C223.988 2.92154 224.524 2.81719 225.245 2.81719H227.096C227.608 2.81719 228.062 2.89835 228.458 3.06067C228.877 3.1998 229.203 3.47806 229.435 3.89546L234.708 13.3215C234.894 13.623 235.068 13.9476 235.231 14.2955C235.418 14.6201 235.557 14.9099 235.65 15.165C235.767 14.9331 235.906 14.6317 236.069 14.2607C236.256 13.8897 236.407 13.5882 236.523 13.3563L241.9 3.93024C242.156 3.48966 242.459 3.1998 242.808 3.06067C243.181 2.89835 243.623 2.81719 244.135 2.81719H245.951C246.696 2.81719 247.231 2.92154 247.557 3.13024C247.883 3.31574 248.046 3.59401 248.046 3.96502V26.1911C248.046 26.5621 247.883 26.8404 247.557 27.0259C247.231 27.2114 246.696 27.3042 245.951 27.3042H245.113C244.391 27.3042 243.856 27.2114 243.507 27.0259C243.181 26.8172 243.018 26.5273 243.018 26.1563V13.4955C243.018 13.194 243.018 12.9042 243.018 12.6259C243.018 12.3476 243.018 12.0694 243.018 11.7911L242.878 11.7563C242.762 11.9882 242.634 12.2201 242.494 12.452C242.354 12.6607 242.226 12.881 242.11 13.1128L237.99 20.5215C237.804 20.8694 237.536 21.1129 237.187 21.252C236.861 21.3679 236.407 21.4259 235.825 21.4259H235.371C234.789 21.4259 234.324 21.3679 233.974 21.252C233.649 21.1129 233.393 20.8694 233.206 20.5215L229.086 13.1128C228.97 12.881 228.842 12.6607 228.702 12.452C228.562 12.2201 228.434 11.9882 228.318 11.7563L228.178 11.7911C228.178 12.0694 228.178 12.3476 228.178 12.6259C228.178 12.9042 228.178 13.194 228.178 13.4955V26.1563C228.178 26.5273 228.015 26.8172 227.69 27.0259C227.364 27.2114 226.828 27.3042 226.083 27.3042H225.245Z" fill="#353335"/>
<path d="M259.49 27.3042C258.769 27.3042 258.233 27.2114 257.884 27.0259C257.558 26.8404 257.395 26.5621 257.395 26.1911V15.5476L250.447 4.38241C250.354 4.19691 250.284 4.04618 250.237 3.93024C250.168 3.79111 250.133 3.67517 250.133 3.58241C250.133 3.30415 250.307 3.10705 250.656 2.99111C251.029 2.87517 251.588 2.81719 252.332 2.81719H253.834C254.509 2.81719 254.998 2.88676 255.3 3.02589C255.603 3.14183 255.859 3.38531 256.068 3.75633L261.201 12.6607H259.176L264.274 3.75633C264.483 3.38531 264.739 3.14183 265.042 3.02589C265.345 2.88676 265.833 2.81719 266.508 2.81719H267.8C268.545 2.81719 269.092 2.87517 269.441 2.99111C269.814 3.10705 270 3.30415 270 3.58241C270 3.67517 269.977 3.79111 269.93 3.93024C269.884 4.04618 269.802 4.19691 269.686 4.38241L262.772 15.652V26.1911C262.772 26.5621 262.609 26.8404 262.284 27.0259C261.958 27.2114 261.422 27.3042 260.677 27.3042H259.49Z" fill="#353335"/>
<rect x="203.822" y="12.1738" width="7.85614" height="5.21739" rx="2" fill="#2563EB"/>
<rect x="203.822" y="22.1738" width="15.2758" height="5.21739" rx="2" fill="#353335"/>
<rect x="203.822" y="2.6084" width="15.2758" height="5.21739" rx="2" fill="#353335"/>
<path d="M3.23828 64.0352V78H2.21289V64.0352H3.23828ZM15.8945 64.0352V64.9141H11.1094V78H10.084V64.9141H5.39648V64.0352H15.8945Z" fill="#2563EB"/>
<path d="M21.8613 72.873C21.8613 69.39 23.4889 67.6484 26.7441 67.6484C29.9993 67.6484 31.627 69.39 31.627 72.873C31.627 76.3561 29.9993 78.0977 26.7441 78.0977C23.502 78.0977 21.8743 76.3561 21.8613 72.873ZM22.8867 72.834C22.8867 75.7572 24.1725 77.2188 26.7441 77.2188C29.3158 77.2188 30.6016 75.7572 30.6016 72.834C30.6016 69.9629 29.3158 68.5273 26.7441 68.5273C24.1725 68.5273 22.8867 69.9629 22.8867 72.834ZM34.0684 78V67.7461H35.0938V72.3359H41.2949V67.7461H42.3203V78H41.2949V73.2148H35.0938V78H34.0684ZM43.7949 77.1211C45.3379 77.1211 46.1094 76.0469 46.1094 73.8984V67.7461H53.1406V78H52.1152V68.625H47.1348V73.8984C47.1348 76.6328 46.0215 78 43.7949 78V77.1211ZM55.5918 75.0996C55.5918 73.0618 56.946 72.043 59.6543 72.043C60.6113 72.043 61.6335 72.1081 62.7207 72.2383V70.9785C62.7207 69.4095 61.7344 68.625 59.7617 68.625C58.707 68.625 57.6263 68.7878 56.5195 69.1133V68.2344C57.6263 67.9089 58.707 67.7461 59.7617 67.7461C62.418 67.7461 63.7461 68.8073 63.7461 70.9297V78H63.1211L62.8867 76.9844C61.6042 77.6615 60.3607 78 59.1562 78C56.7799 78 55.5918 77.0332 55.5918 75.0996ZM59.6543 72.9219C57.6296 72.9219 56.6172 73.638 56.6172 75.0703C56.6172 76.4375 57.4635 77.1211 59.1562 77.1211C60.4062 77.1211 61.5944 76.7891 62.7207 76.125V73.1172C61.6335 72.987 60.6113 72.9219 59.6543 72.9219ZM74.1074 78V69.0938L67.8086 78H66.7832V67.7461H67.7109V76.6523L74.0098 67.7461H75.0352V78H74.1074ZM68.4238 64.0352H69.2539C69.2539 65.207 69.8073 65.793 70.9141 65.793C72.0208 65.793 72.5742 65.207 72.5742 64.0352H73.4043C73.4043 65.7279 72.5742 66.5742 70.9141 66.5742C69.2539 66.5742 68.4238 65.7279 68.4238 64.0352ZM77.9746 78V67.7461H79V72.3359H85.2012V67.7461H86.2266V78H85.2012V73.2148H79V78H77.9746ZM93.6582 72.4336V73.3125H88.7754V72.4336H93.6582ZM96.1973 78V67.7461H97.2227V77.1211H101.812V67.7461H102.838V77.1211H107.428V67.7461H108.453V78H96.1973ZM112.418 67.7461V78H111.393V67.7461H112.418ZM117.984 78L116.549 75.5977C115.585 73.7943 114.524 72.8926 113.365 72.8926V72.2773C114.602 72.2773 115.458 71.5221 115.934 70.0117C116.415 68.5013 117.301 67.7461 118.59 67.7461H119.342V68.625H118.57C117.802 68.625 117.219 69.2174 116.822 70.4023C116.425 71.5807 115.82 72.2969 115.006 72.5508C115.709 72.7526 116.598 73.7096 117.672 75.4219L119.293 78H117.984ZM120.572 72.873C120.572 69.39 122.2 67.6484 125.455 67.6484C128.71 67.6484 130.338 69.39 130.338 72.873C130.338 76.3561 128.71 78.0977 125.455 78.0977C122.213 78.0977 120.585 76.3561 120.572 72.873ZM121.598 72.834C121.598 75.7572 122.883 77.2188 125.455 77.2188C128.027 77.2188 129.312 75.7572 129.312 72.834C129.312 69.9629 128.027 68.5273 125.455 68.5273C122.883 68.5273 121.598 69.9629 121.598 72.834ZM131.314 77.1211C132.857 77.1211 133.629 76.0469 133.629 73.8984V67.7461H140.66V78H139.635V68.625H134.654V73.8984C134.654 76.6328 133.541 78 131.314 78V77.1211ZM143.111 75.0996C143.111 73.0618 144.465 72.043 147.174 72.043C148.131 72.043 149.153 72.1081 150.24 72.2383V70.9785C150.24 69.4095 149.254 68.625 147.281 68.625C146.227 68.625 145.146 68.7878 144.039 69.1133V68.2344C145.146 67.9089 146.227 67.7461 147.281 67.7461C149.938 67.7461 151.266 68.8073 151.266 70.9297V78H150.641L150.406 76.9844C149.124 77.6615 147.88 78 146.676 78C144.299 78 143.111 77.0332 143.111 75.0996ZM147.174 72.9219C145.149 72.9219 144.137 73.638 144.137 75.0703C144.137 76.4375 144.983 77.1211 146.676 77.1211C147.926 77.1211 149.114 76.7891 150.24 76.125V73.1172C149.153 72.987 148.131 72.9219 147.174 72.9219Z" fill="#353335"/>
<line y1="44.5" x2="270" y2="44.5" stroke="#353335"/>
</svg>
